[Header]
FileType HTR
DataType HTRS
FileVersion 1
NumSegments 64
NumFrames 3
DataFrameRate 30
EulerRotationOrder ZYX
CalibrationUnits mm
RotationUnits Degrees
GlobalAxisofGravity Y
BoneLengthAxis Y
ScaleFactor 1.0
[SegmentNames&Hierarchy]
Hips	GLOBAL
Spine	Hips
Spine1	Spine
Spine2	Spine1
Neck	Spine2
Head	Neck
LeftEye	Head
RightEye	Head
LeftShoulder	Spine2
LeftArm	LeftShoulder
LeftForeArm	LeftArm
LeftHand	LeftForeArm
LeftHandThumb1	LeftHand
LeftHandThumb2	LeftHandThumb1
LeftHandThumb3	LeftHandThumb2
LeftHandThumb4	LeftHandThumb3
LeftHandIndex1	LeftHand
LeftHandIndex2	LeftHandIndex1
LeftHandIndex3	LeftHandIndex2
LeftHandIndex4	LeftHandIndex3
LeftHandMiddle1	LeftHand
LeftHandMiddle2	LeftHandMiddle1
LeftHandMiddle3	LeftHandMiddle2
LeftHandMiddle4	LeftHandMiddle3
LeftHandRing1	LeftHand
LeftHandRing2	LeftHandRing1
LeftHandRing3	LeftHandRing2
LeftHandRing4	LeftHandRing3
LeftHandPinky1	LeftHand
LeftHandPinky2	LeftHandPinky1
LeftHandPinky3	LeftHandPinky2
LeftHandPinky4	LeftHandPinky3
RightShoulder	Spine2
RightArm	RightShoulder
RightForeArm	RightArm
RightHand	RightForeArm
RightHandPinky1	RightHand
RightHandPinky2	RightHandPinky1
RightHandPinky3	RightHandPinky2
RightHandPinky4	RightHandPinky3
RightHandRing1	RightHand
RightHandRing2	RightHandRing1
RightHandRing3	RightHandRing2
RightHandRing4	RightHandRing3
RightHandMiddle1	RightHand
RightHandMiddle2	RightHandMiddle1
RightHandMiddle3	RightHandMiddle2
RightHandMiddle4	RightHandMiddle3
RightHandIndex1	RightHand
RightHandIndex2	RightHandIndex1
RightHandIndex3	RightHandIndex2
RightHandIndex4	RightHandIndex3
RightHandThumb1	RightHand
RightHandThumb2	RightHandThumb1
RightHandThumb3	RightHandThumb2
RightHandThumb4	RightHandThumb3
LeftUpLeg	Hips
LeftLeg	LeftUpLeg
LeftFoot	LeftLeg
LeftToeBase	LeftFoot
RightUpLeg	Hips
RightLeg	RightUpLeg
RightFoot	RightLeg
RightToeBase	RightFoot
[BasePosition]
Hips	0	0	0	0	0	0	1
Spine	0	0	0	0	0	0	1
Spine1	0	0	0	0	0	0	1
Spine2	0	0	0	0	0	0	1
Neck	0	0	0	0	0	0	1
Head	0	0	0	0	0	0	1
LeftEye	0	0	0	0	0	0	1
RightEye	0	0	0	0	0	0	1
LeftShoulder	0	0	0	0	0	0	1
LeftArm	0	0	0	0	0	0	1
LeftForeArm	0	0	0	0	0	0	1
LeftHand	0	0	0	0	0	0	1
LeftHandThumb1	0	0	0	0	0	0	1
LeftHandThumb2	0	0	0	0	0	0	1
LeftHandThumb3	0	0	0	0	0	0	1
LeftHandThumb4	0	0	0	0	0	0	1
LeftHandIndex1	0	0	0	0	0	0	1
LeftHandIndex2	0	0	0	0	0	0	1
LeftHandIndex3	0	0	0	0	0	0	1
LeftHandIndex4	0	0	0	0	0	0	1
LeftHandMiddle1	0	0	0	0	0	0	1
LeftHandMiddle2	0	0	0	0	0	0	1
LeftHandMiddle3	0	0	0	0	0	0	1
LeftHandMiddle4	0	0	0	0	0	0	1
LeftHandRing1	0	0	0	0	0	0	1
LeftHandRing2	0	0	0	0	0	0	1
LeftHandRing3	0	0	0	0	0	0	1
LeftHandRing4	0	0	0	0	0	0	1
LeftHandPinky1	0	0	0	0	0	0	1
LeftHandPinky2	0	0	0	0	0	0	1
LeftHandPinky3	0	0	0	0	0	0	1
LeftHandPinky4	0	0	0	0	0	0	1
RightShoulder	0	0	0	0	0	0	1
RightArm	0	0	0	0	0	0	1
RightForeArm	0	0	0	0	0	0	1
RightHand	0	0	0	0	0	0	1
RightHandPinky1	0	0	0	0	0	0	1
RightHandPinky2	0	0	0	0	0	0	1
RightHandPinky3	0	0	0	0	0	0	1
RightHandPinky4	0	0	0	0	0	0	1
RightHandRing1	0	0	0	0	0	0	1
RightHandRing2	0	0	0	0	0	0	1
RightHandRing3	0	0	0	0	0	0	1
RightHandRing4	0	0	0	0	0	0	1
RightHandMiddle1	0	0	0	0	0	0	1
RightHandMiddle2	0	0	0	0	0	0	1
RightHandMiddle3	0	0	0	0	0	0	1
RightHandMiddle4	0	0	0	0	0	0	1
RightHandIndex1	0	0	0	0	0	0	1
RightHandIndex2	0	0	0	0	0	0	1
RightHandIndex3	0	0	0	0	0	0	1
RightHandIndex4	0	0	0	0	0	0	1
RightHandThumb1	0	0	0	0	0	0	1
RightHandThumb2	0	0	0	0	0	0	1
RightHandThumb3	0	0	0	0	0	0	1
RightHandThumb4	0	0	0	0	0	0	1
LeftUpLeg	0	0	0	0	0	0	1
LeftLeg	0	0	0	0	0	0	1
LeftFoot	0	0	0	0	0	0	1
LeftToeBase	0	0	0	0	0	0	1
RightUpLeg	0	0	0	0	0	0	1
RightLeg	0	0	0	0	0	0	1
RightFoot	0	0	0	0	0	0	1
RightToeBase	0	0	0	0	0	0	1
[Hips]
27	14.13775539	1026.78064	-5.081048965	-35.45162201	81.84629822	-31.98309326	1.0
28	14.7886219	1026.625732	-3.330566645	-37.13486862	82.22954559	-33.64016724	1.0
29	14.86629295	1026.577026	-3.022607565	-37.61520004	82.32188416	-34.10713959	1.0
[Spine]
27	0	101.8159943	1.315000057	3.451116323	1.133965969	3.194030285	1.0
28	0	101.8159943	1.315000057	3.396490335	1.298406482	3.716523409	1.0
29	0	101.8159943	1.315000057	3.376552582	1.36971283	3.9332726	1.0
[Spine1]
27	0	100.8349991	-10.00800037	1.195734739	0.1535554826	1.923776031	1.0
28	0	100.8349991	-10.00800037	1.175300837	0.2679065764	1.765262604	1.0
29	0	100.8349991	-10.00800037	1.168158531	0.3238303959	1.699005127	1.0
[Spine2]
27	0	91	-13.73399925	1.16934216	0.1845249385	1.858654022	1.0
28	0	91	-13.73399925	1.149262428	0.2957536578	1.753670812	1.0
29	0	91	-13.73399925	1.142669439	0.3492259085	1.702079892	1.0
[Neck]
27	0	166.7169952	-25.16200066	5.626288891	-0.04724627361	0.4537166059	1.0
28	0	166.7169952	-25.16200066	5.62587738	-0.1040809304	0.4465837777	1.0
29	0	166.7169952	-25.16200066	5.625737667	-0.1222597137	0.4452456236	1.0
[Head]
27	0	96.17900085	16.84999847	-7.457328796	1.868612289	-0.5419693589	1.0
28	0	96.17900085	16.84999847	-7.535959721	1.480887771	-0.3355840743	1.0
29	0	96.17900085	16.84999847	-7.565248013	1.353949308	-0.2598703802	1.0
[LeftEye]
27	30.6760006	64.09500122	92.83599854	0	0	0	1.0
28	30.6760006	64.09500122	92.83599854	0	0	0	1.0
29	30.6760006	64.09500122	92.83599854	0	0	0	1.0
[RightEye]
27	-30.6760006	64.09500122	92.83499908	0	0	0	1.0
28	-30.6760006	64.09500122	92.83499908	0	0	0	1.0
29	-30.6760006	64.09500122	92.83499908	0	0	0	1.0
[LeftShoulder]
27	45.70400238	109.4599991	-26.28000069	5.186536789	-15.41624451	-13.78227329	1.0
28	45.70400238	109.4599991	-26.28000069	4.977875233	-16.4409771	-13.35133171	1.0
29	45.70400238	109.4599991	-26.28000069	4.903662682	-16.79106903	-13.2045536	1.0
[LeftArm]
27	105.923996	-5.24600029	-22.32099915	20.92831993	-2.658215046	-70.32151794	1.0
28	105.923996	-5.24600029	-22.32099915	20.37088585	-2.982134104	-70.83094788	1.0
29	105.923996	-5.24600029	-22.32099915	20.12803459	-3.088285446	-71.00371552	1.0
[LeftForeArm]
27	278.414978	-0.0009999999311	0	2.534732403e-06	-2.492093563	-0.0002049354516	1.0
28	278.414978	-0.0009999999311	0	2.543148184e-06	-1.706379056	-0.0002006197319	1.0
29	278.414978	-0.0009999999311	0	4.027422165e-06	-1.459365368	-0.0001995275816	1.0
[LeftHand]
27	283.2879944	0	0	-33.42655182	-4.433229446	-3.409932137	1.0
28	283.2879944	0	0	-33.03722763	-4.521058083	-4.258697987	1.0
29	283.2879944	0	0	-32.95536804	-4.523313046	-4.439680576	1.0
[LeftHandThumb1]
27	24.6609993	-15.75	26.8239994	-0.4889881611	2.201389551	4.818526268	1.0
28	24.6609993	-15.75	26.8239994	-0.4889881611	2.201389551	4.818526268	1.0
29	24.6609993	-15.75	26.8239994	-0.4889881611	2.201389551	4.818526268	1.0
[LeftHandThumb2]
27	32.29800034	-18.64699936	18.64699936	19.43619728	19.56887627	22.96325684	1.0
28	32.29800034	-18.64699936	18.64699936	19.75456238	19.85020447	23.17899132	1.0
29	32.29800034	-18.64699936	18.64699936	19.88581657	19.96443176	23.26737404	1.0
[LeftHandThumb3]
27	26.52600098	-15.31499958	15.31499958	-13.11602306	5.718712807	7.894757748	1.0
28	26.52600098	-15.31499958	15.31499958	-13.13677216	5.600515366	7.946409702	1.0
29	26.52600098	-15.31499958	15.31499958	-13.14534664	5.551744461	7.967936039	1.0
[LeftHandThumb4]
27	19.54599953	-11.28499985	11.28499985	0	0	0	1.0
28	19.54599953	-11.28499985	11.28499985	0	0	0	1.0
29	19.54599953	-11.28499985	11.28499985	0	0	0	1.0
[LeftHandIndex1]
27	91.09299469	-5.170999527	22.60099792	0.1380407214	-1.02097404	-7.413727283	1.0
28	91.09299469	-5.170999527	22.60099792	0.1456059963	-0.9787171483	-7.538979053	1.0
29	91.09299469	-5.170999527	22.60099792	0.148041755	-0.9618679881	-7.594504833	1.0
[LeftHandIndex2]
27	36.76399994	0	0	-0.2669044733	1.745816112	-17.38309669	1.0
28	36.76399994	0	0	-0.2669042647	1.745808959	-17.38310051	1.0
29	36.76399994	0	0	-0.2669045627	1.745802164	-17.38310242	1.0
[LeftHandIndex3]
27	28.83100128	0	0	-0.05753007904	0.8180132508	-8.044994354	1.0
28	28.83100128	0	0	-0.05752986297	0.8180100918	-8.044994354	1.0
29	28.83100128	0	0	-0.05752940103	0.8180066943	-8.044994354	1.0
[LeftHandIndex4]
27	23.92700005	0	0	0	0	0	1.0
28	23.92700005	0	0	0	0	0	1.0
29	23.92700005	0	0	0	0	0	1.0
[LeftHandMiddle1]
27	95.33399963	0	0	-0.7825222611	2.534966469	-15.54221344	1.0
28	95.33399963	0	0	-0.790697217	2.534889698	-15.66397667	1.0
29	95.33399963	0	0	-0.7943009734	2.537158012	-15.71750736	1.0
[LeftHandMiddle2]
27	36.98199844	0	0	-0.2669665217	1.745987654	-17.38486481	1.0
28	36.98199844	0	0	-0.2674153447	1.747471929	-17.40002823	1.0
29	36.98199844	0	0	-0.2675974369	1.748085737	-17.40627289	1.0
[LeftHandMiddle3]
27	29.50900078	0	0	-0.2985213697	1.843741179	-18.39264679	1.0
28	29.50900078	0	0	-0.29901582	1.845215082	-18.40787888	1.0
29	29.50900078	0	0	-0.299221158	1.845818162	-18.41413689	1.0
[LeftHandMiddle4]
27	28.3390007	0	0	0	0	0	1.0
28	28.3390007	0	0	0	0	0	1.0
29	28.3390007	0	0	0	0	0	1.0
[LeftHandRing1]
27	91.04499817	-0.4390000105	-18.65100098	-1.176087379	3.369024992	-21.04969215	1.0
28	91.04499817	-0.4390000105	-18.65100098	-1.182080269	3.417157888	-21.12836456	1.0
29	91.04499817	-0.4390000105	-18.65100098	-1.184967041	3.436639309	-21.16631317	1.0
[LeftHandRing2]
27	31.54000092	0	0	-0.3841830194	2.083574772	-20.89187622	1.0
28	31.54000092	0	0	-0.3847114444	2.084967136	-20.90652275	1.0
29	31.54000092	0	0	-0.3849364221	2.085564852	-20.9127903	1.0
[LeftHandRing3]
27	29.37700081	0	0	-0.2811666727	1.790723324	-17.84525871	1.0
28	29.37700081	0	0	-0.2816178501	1.792117238	-17.85961914	1.0
29	29.37700081	0	0	-0.2818107903	1.792712569	-17.86577225	1.0
[LeftHandRing4]
27	26.47500038	0	0	0	0	0	1.0
28	26.47500038	0	0	0	0	0	1.0
29	26.47500038	0	0	0	0	0	1.0
[LeftHandPinky1]
27	80.77799988	-4.887000084	-38.06099701	-1.684788823	5.3734622	-27.06605911	1.0
28	80.77799988	-4.887000084	-38.06099701	-1.690714836	5.356223583	-27.13716888	1.0
29	80.77799988	-4.887000084	-38.06099701	-1.693068981	5.35422802	-27.1653862	1.0
[LeftHandPinky2]
27	36	0	0	-0.2671784163	1.746697307	-17.39220619	1.0
28	36	0	0	-0.2674720883	1.747617483	-17.40163422	1.0
29	36	0	0	-0.267629981	1.748104811	-17.40662384	1.0
[LeftHandPinky3]
27	21.14200211	0	0	-0.2404428273	1.658963919	-16.49229431	1.0
28	21.14200211	0	0	-0.2407134622	1.659870148	-16.5016346	1.0
29	21.14200211	0	0	-0.2408584654	1.660351872	-16.50661278	1.0
[LeftHandPinky4]
27	19.75699997	0	0	0	0	0	1.0
28	19.75699997	0	0	0	0	0	1.0
29	19.75699997	0	0	0	0	0	1.0
[RightShoulder]
27	-45.70000076	109.4620056	0	5.165719986	14.42852783	15.60642624	1.0
28	-45.70000076	109.4620056	0	5.177240372	14.48808765	15.54596424	1.0
29	-45.70000076	109.4620056	0	5.181169033	14.50999165	15.52806091	1.0
[RightArm]
27	-105.9280014	-5.248000145	-22.32099915	30.04130363	2.278106451	62.64033127	1.0
28	-105.9280014	-5.248000145	-22.32099915	30.18906021	2.243389606	62.65264893	1.0
29	-105.9280014	-5.248000145	-22.32099915	30.23854256	2.220944166	62.62534332	1.0
[RightForeArm]
27	-278.414978	0	0	3.064285238e-06	6.88611412	1.118359251e-06	1.0
28	-278.414978	0	0	1.030095291e-06	6.742848396	-4.567483757e-06	1.0
29	-278.414978	0	0	0	6.693533897	-4.543693649e-06	1.0
[RightHand]
27	-283.2879944	0	0.0009999999311	-19.80965805	1.875225067	6.597166538	1.0
28	-283.2879944	0	0.0009999999311	-19.98798752	1.889354706	6.549180508	1.0
29	-283.2879944	0	0.0009999999311	-20.07678413	1.855661511	6.545376301	1.0
[RightHandPinky1]
27	-80.76699829	-4.885000229	-38.06000137	-1.556592822	-4.537239552	26.74205399	1.0
28	-80.76699829	-4.885000229	-38.06000137	-1.522284985	-4.648719788	26.58012199	1.0
29	-80.76699829	-4.885000229	-38.06000137	-1.507175565	-4.696124077	26.50587082	1.0
[RightHandPinky2]
27	-36	0	0.0009999999311	-0.2127801627	-1.388955951	17.43899727	1.0
28	-36	0	0.0009999999311	-0.212784186	-1.388950706	17.43899345	1.0
29	-36	0	0.0009999999311	-0.212788105	-1.388949037	17.43898392	1.0
[RightHandPinky3]
27	-21.14200211	0	0	-0.1918528378	-1.320397496	16.53373718	1.0
28	-21.14200211	0	0	-0.1918556988	-1.320415378	16.533741	1.0
29	-21.14200211	0	0	-0.1918575168	-1.320427418	16.5337429	1.0
[RightHandPinky4]
27	-19.75699997	0	0	0	0	0	1.0
28	-19.75699997	0	0	0	0	0	1.0
29	-19.75699997	0	0	0	0	0	1.0
[RightHandRing1]
27	-91.03599548	-0.4390000105	-18.65100098	-1.06078124	-2.825243473	20.71445847	1.0
28	-91.03599548	-0.4390000105	-18.65100098	-1.05008471	-2.864604712	20.55179977	1.0
29	-91.03599548	-0.4390000105	-18.65100098	-1.045229912	-2.883115053	20.47790146	1.0
[RightHandRing2]
27	-31.54000092	0	0	-0.3065736592	-1.658455133	20.9451046	1.0
28	-31.54000092	0	0	-0.3065714836	-1.658441544	20.94509697	1.0
29	-31.54000092	0	0	-0.3065709174	-1.658432245	20.94508743	1.0
[RightHandRing3]
27	-29.37700081	0	0	-0.2244440019	-1.425519347	17.89369392	1.0
28	-29.37700081	0	0	-0.2244410068	-1.425533533	17.89369202	1.0
29	-29.37700081	0	0	-0.2244376242	-1.425550342	17.89369202	1.0
[RightHandRing4]
27	-26.47500038	0	0	0	0	0	1.0
28	-26.47500038	0	0	0	0	0	1.0
29	-26.47500038	0	0	0	0	0	1.0
[RightHandMiddle1]
27	-95.32500458	0	0	-0.7101004124	-2.111223936	15.15532112	1.0
28	-95.32500458	0	0	-0.7044267058	-2.094327211	15.06067657	1.0
29	-95.32500458	0	0	-0.7017092705	-2.088302851	15.01524258	1.0
[RightHandMiddle2]
27	-36.98199844	0	0	-0.2135917991	-1.391568184	17.45292473	1.0
28	-36.98199844	0	0	-0.2133408934	-1.390747428	17.4424572	1.0
29	-36.98199844	0	0	-0.2132245302	-1.390352607	17.43750572	1.0
[RightHandMiddle3]
27	-29.50900078	0	0	-0.2388007343	-1.471277118	18.46226501	1.0
28	-29.50900078	0	0	-0.2385320514	-1.470490813	18.45186043	1.0
29	-29.50900078	0	0	-0.2384032756	-1.470128536	18.44693184	1.0
[RightHandMiddle4]
27	-28.3390007	0	0.0009999999311	0	0	0	1.0
28	-28.3390007	0	0.0009999999311	0	0	0	1.0
29	-28.3390007	0	0.0009999999311	0	0	0	1.0
[RightHandIndex1]
27	-91.08300018	-5.167999744	22.60099792	0.1606948376	1.253927827	7.116420269	1.0
28	-91.08300018	-5.167999744	22.60099792	0.1789671332	1.254258394	6.913522243	1.0
29	-91.08300018	-5.167999744	22.60099792	0.1884829402	1.251928806	6.825616837	1.0
[RightHandIndex2]
27	-36.76399994	0	0	-0.212459445	-1.387908578	17.40579033	1.0
28	-36.76399994	0	0	-0.2124589682	-1.387927532	17.40597534	1.0
29	-36.76399994	0	0	-0.2124543488	-1.387929082	17.40599442	1.0
[RightHandIndex3]
27	-28.83100128	0	0	-0.04575363174	-0.6499497294	8.051646233	1.0
28	-28.83100128	0	0	-0.04575141892	-0.6499747634	8.051832199	1.0
29	-28.83100128	0	0	-0.04574740306	-0.6499834061	8.051858902	1.0
[RightHandIndex4]
27	-23.92700005	0	0	0	0	0	1.0
28	-23.92700005	0	0	0	0	0	1.0
29	-23.92700005	0	0	0	0	0	1.0
[RightHandThumb1]
27	-24.64799881	-15.72700024	26.82600021	-1.658465981	-0.2891423702	-4.221325874	1.0
28	-24.64799881	-15.72700024	26.82600021	-1.658465981	-0.2891423702	-4.221325874	1.0
29	-24.64799881	-15.72700024	26.82600021	-1.658465981	-0.2891423702	-4.221325874	1.0
[RightHandThumb2]
27	-32.29800034	-18.64699936	18.64699936	22.35308456	-23.74137688	-24.19996071	1.0
28	-32.29800034	-18.64699936	18.64699936	22.27963829	-23.84933472	-24.25804138	1.0
29	-32.29800034	-18.64699936	18.64699936	22.25257683	-23.88967323	-24.282444	1.0
[RightHandThumb3]
27	-26.52600098	-15.31399918	15.31399918	-14.4786911	-6.729870319	-11.37543678	1.0
28	-26.52600098	-15.31399918	15.31399918	-14.47988224	-6.738652706	-11.37457561	1.0
29	-26.52600098	-15.31399918	15.31399918	-14.47936821	-6.741293907	-11.37446594	1.0
[RightHandThumb4]
27	-19.54599953	-11.28499985	11.28499985	0	0	0	1.0
28	-19.54599953	-11.28499985	11.28499985	0	0	0	1.0
29	-19.54599953	-11.28499985	11.28499985	0	0	0	1.0
[LeftUpLeg]
27	82.07800293	-67.51699829	-15.99599934	-12.83551693	35.09104538	6.298148632	1.0
28	82.07800293	-67.51699829	-15.99599934	-12.72429466	35.04296494	6.748791218	1.0
29	82.07800293	-67.51699829	-15.99599934	-12.65399456	35.00136566	6.992098808	1.0
[LeftLeg]
27	0	-443.7049866	2.845999956	17.61379242	-8.484424591	4.281385899	1.0
28	0	-443.7049866	2.845999956	17.8052845	-8.675679207	3.511467457	1.0
29	0	-443.7049866	2.845999956	17.92733192	-8.62439537	3.112615108	1.0
[LeftFoot]
27	0	-444.2789917	-29.8219986	-1.163030624	-8.681462288	-5.704920769	1.0
28	0	-444.2789917	-29.8219986	-1.17288816	-8.715385437	-5.419632912	1.0
29	0	-444.2789917	-29.8219986	-1.191717148	-8.7403965	-5.2323246	1.0
[LeftToeBase]
27	0	-87.28699493	107.1060028	-4.928526878	-1.449013234e-05	2.214953383e-06	1.0
28	0	-87.28699493	107.1060028	-4.928524017	-5.858295481e-06	8.387239063e-07	1.0
29	0	-87.28699493	107.1060028	-4.928521156	-2.496151637e-06	-4.478619076e-07	1.0
[RightUpLeg]
27	-82.07800293	-67.51699829	-15.99599934	-3.01104188	-10.41234493	4.161473751	1.0
28	-82.07800293	-67.51699829	-15.99599934	-2.956501245	-10.43622112	4.26029253	1.0
29	-82.07800293	-67.51699829	-15.99599934	-2.949112654	-10.44256878	4.28049612	1.0
[RightLeg]
27	0	-443.7049866	2.861999989	13.83089447	-8.304895401	-5.341765881	1.0
28	0	-443.7049866	2.861999989	13.96396923	-8.718442917	-5.481396675	1.0
29	0	-443.7049866	2.861999989	14.00711346	-8.818653107	-5.51964283	1.0
[RightFoot]
27	0	-444.2770081	-29.83799934	-6.480929375	-1.305997968	3.941131592	1.0
28	0	-444.2770081	-29.83799934	-6.647016525	-1.300657749	3.932093859	1.0
29	0	-444.2770081	-29.83799934	-6.683940411	-1.297760487	3.93450737	1.0
[RightToeBase]
27	0	-87.28699493	107.1060028	-7.282875538	1.770368544e-05	1.165673893e-06	1.0
28	0	-87.28699493	107.1060028	-7.282876968	1.617339149e-05	-7.709848546e-07	1.0
29	0	-87.28699493	107.1060028	-7.282878399	1.209765196e-05	-1.686386668e-06	1.0
[EndOfFile]
